<?xml version="1.0" encoding="utf-8"?>
<!-- Generator: Adobe Illustrator 27.7.0, SVG Export Plug-In . SVG Version: 6.00 Build 0)  -->
<svg version="1.1" id="Layer_1" xmlns="http://www.w3.org/2000/svg" xmlns:xlink="http://www.w3.org/1999/xlink" x="0px" y="0px"
	 viewBox="0 0 512 512" style="enable-background:new 0 0 512 512;" xml:space="preserve">
<style type="text/css">
	.st0{fill:#FFFFFF;}
</style>
<g>
	<g>
		<path class="st0" d="M502.8,155.6c-10.4-16.7-28.8-29.6-54.6-38.2V85.7l-54.3,36.8l54.3,36.8v-25.2c19.4,7.3,33.6,17.5,41.3,29.8
			c7.8,12.5,8.9,26.9,3.3,42.8c-8.5,24-31,49.1-63.3,72.2c1-7.6,1.5-15.2,1.5-22.8c0-96.3-78.5-174.6-175-174.6S81,159.7,81,256
			c0,39.9,13.4,77.8,38,108.6c-47.7-4.3-82.6-19.2-96.5-41.5c-17-27.3-1.8-64.1,41.9-100.9l-10.1-12C30.8,230,14.1,251,6,270.9
			c-8.9,21.9-7.8,42.8,3.2,60.4c18,28.9,60.9,46.5,120.6,49.7c6.5,0.3,13.1,0.5,19.9,0.5c16.7,0,34-1.1,51.7-3.1
			c8.8,12.6,18.9,24.1,30.4,34.6c-23.1-3.5-45.1-12-64.7-25.2l-8.7,13c28.9,19.4,62.7,29.7,97.7,29.7c69.9,0,133-41.3,160.7-105.3
			l-14.4-6.2c-1.9,4.3-3.9,8.5-6.1,12.5h-27.7c28.3-13,53.9-27.8,75.4-43.8c32.8-24.5,54.8-50.7,63.7-75.8
			C514.8,191.6,513.1,172.1,502.8,155.6z M432.6,129.7l-10.7-7.2l10.7-7.2V129.7z M248.2,105.4v59.4h-47.5
			C212.3,142.4,228.3,122.3,248.2,105.4z M248.2,180.5v67.7h-69.4c0.9-23.7,5.9-46.5,14.6-67.7H248.2z M231.8,98.9
			c-19.4,17.7-35,38.5-46.7,62.1c-0.6,1.2-1.2,2.5-1.8,3.7h-57.7C150,130.2,188,105.6,231.8,98.9z M115.7,331.5L115.7,331.5
			c-12.5-22.9-19.1-48.7-19.1-75.5c0-27.3,7-53,19.2-75.5h60.9c-8.1,21.6-12.7,44.5-13.6,67.7h-53.4v15.7h53.4
			c0.9,23.1,5.5,46.1,13.6,67.7L115.7,331.5L115.7,331.5z M140.8,365.8c-5.6-5.9-10.8-12.1-15.4-18.6h57.8c0.6,1.3,1.2,2.5,1.8,3.7
			c2.2,4.4,4.5,8.6,6.9,12.8C174.4,365.5,157.3,366.2,140.8,365.8z M178.8,263.8h69.4v67.7h-54.8
			C184.7,310.4,179.7,287.5,178.8,263.8z M248.2,406.6c-10.9-9.2-20.6-19.5-29.1-30.5c9.6-1.5,19.3-3.2,29.1-5.2V406.6z
			 M248.2,354.8L248.2,354.8c-13.2,2.8-26.2,5.1-39.1,6.9c-3-4.7-5.8-9.6-8.3-14.5h47.5V354.8z M263.8,105.4
			c19.9,16.9,35.9,37,47.5,59.4h-47.5V105.4z M263.8,180.5h54.8c8.7,21.2,13.7,44,14.6,67.7h-69.4V180.5z M263.8,263.8h69.3
			c-1,25.2-6.5,49.3-16.2,71.6c-0.4,0.2-0.9,0.3-1.3,0.5c-17.2,6-34.5,11.1-51.8,15.4L263.8,263.8L263.8,263.8z M263.8,406.6v-39.2
			c14.3-3.4,28.7-7.4,43-12C295.7,374.5,281.3,391.8,263.8,406.6z M386.5,347.2c-24.9,35.4-63.2,59.2-106.3,65.8
			c19.3-17.7,35-38.5,46.7-62.1c0.5-1,0.9-2,1.4-3c0.7-0.3,1.4-0.5,2.2-0.8L386.5,347.2L386.5,347.2z M411.5,290.9
			c-21.9,13.6-47.2,26.3-74.9,37.2c7.3-20.6,11.5-42.3,12.3-64.3h66.3C414.7,273,413.5,282,411.5,290.9z M348.9,248.2
			c-0.9-23.1-5.5-46.1-13.6-67.7h10.1v-15.7h-16.7c-0.6-1.3-1.2-2.5-1.8-3.7c-11.7-23.6-27.3-44.4-46.7-62.1
			c73.9,11.3,131.2,73.3,134.9,149.2H348.9z"/>
	</g>
</g>
<g>
	<g>
		<rect x="364.2" y="164.8" class="st0" width="15.7" height="15.7"/>
	</g>
</g>
</svg>
