<svg width="100%" height="100%" viewBox="0 0 160 107" fill="none" xmlns="http://www.w3.org/2000/svg">
<path d="M55.5825 93.1348H58.6079V101.07C58.6079 102.814 59.213 104.035 61.2011 104.035C63.1027 104.035 63.7078 102.901 63.7078 101.07V93.1348H66.7332V101.506C66.7332 104.733 64.5722 107 61.1146 107C57.6571 107 55.4961 104.82 55.4961 101.506V93.1348H55.5825Z" fill="#0047BB"/>
<path d="M70.8789 93.1348H73.9043V98.4541L78.3991 93.1348H81.8567L77.2754 98.3669L82.4617 106.564H78.8313L75.2873 100.721L73.9043 102.291V106.651H70.8789V93.1348V93.1348Z" fill="#0047BB"/>
<path d="M85.3164 93.1348H90.2434C93.3552 93.1348 94.9111 95.0532 94.9111 97.3205C94.9111 99.0645 94.1332 100.373 92.7502 101.157L95.6891 106.564H92.4044L89.8977 101.593H88.2553V106.564H85.3164V93.1348ZM90.157 99.2389C91.2807 99.2389 91.9722 98.4541 91.9722 97.4949C91.9722 96.3612 91.2807 95.6636 90.157 95.6636H88.2553V99.2389H90.157Z" fill="#0047BB"/>
<path d="M103.123 93.1348H106.494L111.335 106.564H108.05L107.013 103.512H102.345L101.308 106.564H98.1094L103.123 93.1348ZM106.321 101.157L104.679 96.0996L103.036 101.157H106.321Z" fill="#0047BB"/>
<path d="M114.191 93.1348H117.217V106.564H114.191V93.1348Z" fill="#0047BB"/>
<path d="M121.359 93.1348H124.212L130.003 101.855V93.1348H132.942V106.564H130.263L124.385 97.6693V106.564H121.446V93.1348H121.359Z" fill="#0047BB"/>
<path d="M137.184 93.1348H146.26V95.838H140.209V98.4541H144.963V101.07H140.209V103.948H146.778V106.651H137.27V93.1348H137.184Z" fill="#0047BB"/>
<path d="M94.0464 16.1332C95.5159 15.5228 96.9854 14.8252 98.4548 14.1276L94.9973 5.66895C72.6095 17.0052 59.125 8.80823 59.125 8.80823L82.3771 65.4897C82.3771 65.4897 95.7752 73.6867 118.249 62.3504L114.792 53.8918C113.322 54.6766 111.853 55.3742 110.383 55.9846C100.011 60.3447 92.8363 59.4727 89.2923 58.5135L83.6737 44.8227C89.7245 45.1716 98.1955 44.1251 108.568 38.893L105.111 30.4344C103.641 31.2192 102.172 31.9168 100.702 32.5272C90.3295 36.8873 83.1551 36.0153 79.6111 35.0561L73.8197 20.9293C80.389 20.5805 87.2177 19.0109 94.0464 16.1332Z" fill="#0047BB"/>
<path d="M62.3226 67.8426C65.4344 66.9705 68.892 66.0985 72.6089 65.4881L45.9856 0.522461C6.91513 7.49864 0 30.6944 0 30.6944L31.2045 106.648H42.4416L33.4519 84.7598C38.6383 78.9172 47.5415 72.1155 62.3226 67.8426ZM31.2045 15.5212C33.8841 14.3876 36.7366 13.4284 39.762 12.6436L58.4329 58.0759C55.4939 58.9479 52.6414 59.9944 49.9618 61.128C41.923 64.4417 34.9214 68.9762 29.2164 74.2955L11.3235 30.956C13.6574 27.2063 19.1895 20.579 31.2045 15.5212Z" fill="#0047BB"/>
<path d="M143.487 3.40089C140.894 2.61607 137.696 1.74404 134.238 1.13363L145.735 29.0383C129.311 13.1675 115.395 3.13928 110.9 0C107.356 0.523213 104.158 1.48244 101.91 2.26726L125.162 58.9487C127.669 57.7278 133.374 54.9374 133.374 54.9374L117.296 15.6092C122.569 19.7077 136.659 30.9568 152.477 47.3508C154.897 46.7404 157.231 46.2171 159.997 45.6939L143.487 3.40089Z" fill="#0047BB"/>
</svg>
